<svg width="27" height="25" viewBox="0 0 27 25" fill="none" xmlns="http://www.w3.org/2000/svg">
<path fill-rule="evenodd" clip-rule="evenodd" d="M7.125 12.75C4.43261 12.75 2.25 14.9326 2.25 17.625C2.25 20.3174 4.43261 22.5 7.125 22.5C9.81739 22.5 12 20.3174 12 17.625C12 14.9326 9.81739 12.75 7.125 12.75ZM0 17.625C0 13.69 3.18997 10.5 7.125 10.5C11.06 10.5 14.25 13.69 14.25 17.625C14.25 21.56 11.06 24.75 7.125 24.75C3.18997 24.75 0 21.56 0 17.625Z" fill="#E1AA4B"/>
<path fill-rule="evenodd" clip-rule="evenodd" d="M24.4189 0.329505C24.8583 0.768845 24.8583 1.48116 24.4189 1.9205L12.1939 14.1455C11.7546 14.5848 11.0423 14.5848 10.6029 14.1455C10.1636 13.7062 10.1636 12.9938 10.6029 12.5545L22.8279 0.329505C23.2673 -0.109835 23.9796 -0.109835 24.4189 0.329505Z" fill="#E1AA4B"/>
<path fill-rule="evenodd" clip-rule="evenodd" d="M21.3295 1.8295C21.7688 1.39017 22.4812 1.39017 22.9205 1.8295L25.9205 4.82951C26.3598 5.26885 26.3598 5.98116 25.9205 6.4205C25.4812 6.85984 24.7688 6.85984 24.3295 6.4205L21.3295 3.4205C20.8902 2.98116 20.8902 2.26884 21.3295 1.8295Z" fill="#E1AA4B"/>
<path fill-rule="evenodd" clip-rule="evenodd" d="M16.8295 6.3295C17.2688 5.89017 17.9812 5.89017 18.4205 6.3295L21.4205 9.32951C21.8598 9.76885 21.8598 10.4812 21.4205 10.9205C20.9812 11.3598 20.2688 11.3598 19.8295 10.9205L16.8295 7.9205C16.3902 7.48116 16.3902 6.76884 16.8295 6.3295Z" fill="#E1AA4B"/>
</svg>
