<svg width="35" height="34" viewBox="0 0 35 34" fill="none" xmlns="http://www.w3.org/2000/svg">
<path fill-rule="evenodd" clip-rule="evenodd" d="M5.83333 23.7292C5.63198 23.7292 5.46875 23.8878 5.46875 24.0834V28.3334C5.46875 28.529 5.63198 28.6876 5.83333 28.6876H7.29167C7.49302 28.6876 7.65625 28.529 7.65625 28.3334V24.0834C7.65625 23.8878 7.49302 23.7292 7.29167 23.7292H5.83333ZM3.28125 24.0834C3.28125 22.7142 4.42386 21.6042 5.83333 21.6042H7.29167C8.70114 21.6042 9.84375 22.7142 9.84375 24.0834V28.3334C9.84375 29.7026 8.70114 30.8126 7.29167 30.8126H5.83333C4.42386 30.8126 3.28125 29.7026 3.28125 28.3334V24.0834Z" fill="#E1AA4B"/>
<path fill-rule="evenodd" clip-rule="evenodd" d="M12.0688 16.7055C12.6136 16.5157 13.2069 16.5013 13.7609 16.6642C14.3149 16.8271 14.8002 17.1588 15.1453 17.6102C15.4903 18.0617 15.6768 18.609 15.6771 19.1713L15.6771 21.6042H17.5C18.2402 21.6042 19.1122 21.9263 19.6296 22.6045C20.2433 23.4068 20.022 24.3326 19.8814 24.7925C19.8719 24.8237 19.8609 24.8544 19.8484 24.8846L18.1141 29.0966C17.9511 29.586 17.6352 30.0145 17.2097 30.3222C16.7692 30.6406 16.2348 30.8126 15.6858 30.8126C15.6858 30.8126 15.6859 30.8126 15.6858 30.8126H10.2083C9.53148 30.8126 8.88235 30.5514 8.40374 30.0864C7.92513 29.6215 7.65625 28.9909 7.65625 28.3334V22.6667C7.65625 22.4624 7.71689 22.2624 7.8309 22.0907L10.7257 17.7317L10.735 17.7179C11.0563 17.2502 11.5239 16.8952 12.0688 16.7055ZM13.1271 18.698C13.0222 18.6672 12.91 18.6699 12.8069 18.7058C12.7058 18.7411 12.6187 18.8064 12.558 18.8925L9.84375 22.9797V28.3334C9.84375 28.4273 9.88216 28.5174 9.95053 28.5838C10.0189 28.6502 10.1116 28.6876 10.2083 28.6876H15.6858C15.7643 28.6876 15.8407 28.663 15.9036 28.6175C15.9665 28.572 16.0127 28.508 16.0352 28.435C16.0445 28.4047 16.0553 28.3748 16.0674 28.3454L17.7972 24.1443C17.8389 23.9993 17.8516 23.9055 17.851 23.8492C17.851 23.8491 17.851 23.8493 17.851 23.8492C17.7945 23.8025 17.655 23.7292 17.5 23.7292H14.5833C13.9793 23.7292 13.4896 23.2535 13.4896 22.6667V19.1723C13.4895 19.066 13.4543 18.9624 13.389 18.877C13.3237 18.7916 13.2319 18.7288 13.1271 18.698Z" fill="#E1AA4B"/>
<path fill-rule="evenodd" clip-rule="evenodd" d="M20.416 3.1875C21.0201 3.1875 21.5098 3.6632 21.5098 4.25V9.91667C21.5098 10.0106 21.5482 10.1007 21.6165 10.1671C21.6849 10.2335 21.7777 10.2708 21.8743 10.2708H27.7077C28.3117 10.2708 28.8014 10.7465 28.8014 11.3333C28.8014 11.9201 28.3117 12.3958 27.7077 12.3958H21.8743C21.1975 12.3958 20.5484 12.1346 20.0698 11.6697C19.5911 11.2048 19.3223 10.5742 19.3223 9.91667V4.25C19.3223 3.6632 19.812 3.1875 20.416 3.1875Z" fill="#E1AA4B"/>
<path fill-rule="evenodd" clip-rule="evenodd" d="M10.2077 5.3125C9.72421 5.3125 9.26055 5.49907 8.91868 5.83116C8.57682 6.16326 8.38477 6.61368 8.38477 7.08333V17.1417C8.38477 17.7285 7.89508 18.2042 7.29102 18.2042C6.68695 18.2042 6.19727 17.7285 6.19727 17.1417V7.08333C6.19727 6.05009 6.61979 5.05917 7.37189 4.32856C8.12399 3.59795 9.14405 3.1875 10.2077 3.1875H20.416C20.7061 3.1875 20.9843 3.29944 21.1894 3.4987L28.4811 10.582C28.6862 10.7813 28.8014 11.0515 28.8014 11.3333V26.9167C28.8014 27.9499 28.3789 28.9408 27.6268 29.6714C26.8747 30.402 25.8546 30.8125 24.791 30.8125H21.4368C20.8328 30.8125 20.3431 30.3368 20.3431 29.75C20.3431 29.1632 20.8328 28.6875 21.4368 28.6875H24.791C25.2745 28.6875 25.7381 28.5009 26.08 28.1688C26.4219 27.8367 26.6139 27.3863 26.6139 26.9167V11.7734L19.963 5.3125H10.2077Z" fill="#E1AA4B"/>
</svg>
