<svg width="29" height="29" viewBox="0 0 29 29" fill="none" xmlns="http://www.w3.org/2000/svg">
<path fill-rule="evenodd" clip-rule="evenodd" d="M7.61235 2.69877C10.2582 1.17029 13.3332 0.554103 16.3637 0.945122C19.3942 1.33614 22.212 2.71268 24.3832 4.86268C26.5544 7.01269 27.9584 9.81689 28.379 12.8433C28.4687 13.4891 28.018 14.0854 27.3722 14.1751C26.7264 14.2649 26.1301 13.8141 26.0403 13.1683C25.691 10.6548 24.525 8.32593 22.7218 6.54033C20.9186 4.75473 18.5784 3.61151 16.0615 3.28676C13.5447 2.96202 10.9908 3.47377 8.79347 4.74318C7.12988 5.70422 5.74046 7.05917 4.74011 8.67723H8.32065C8.97265 8.67723 9.50121 9.20577 9.50121 9.85775C9.50121 10.5097 8.97265 11.0383 8.32065 11.0383H2.83776C2.81988 11.0387 2.80195 11.0387 2.78399 11.0383H2.02431C1.37231 11.0383 0.84375 10.5097 0.84375 9.85775V3.56161C0.84375 2.90962 1.37231 2.38108 2.02431 2.38108C2.67632 2.38108 3.20488 2.90962 3.20488 3.56161V6.72064C4.35944 5.08718 5.8595 3.71138 7.61235 2.69877Z" fill="#373737"/>
<path fill-rule="evenodd" clip-rule="evenodd" d="M1.86195 15.0326C2.50776 14.9429 3.10403 15.3936 3.19378 16.0394C3.5431 18.5529 4.70915 20.8818 6.51232 22.6674C8.3155 24.453 10.6558 25.5962 13.1726 25.921C15.6895 26.2457 18.2433 25.734 20.4406 24.4646C22.1042 23.5035 23.4936 22.1486 24.494 20.5305H20.9135C20.2615 20.5305 19.7329 20.002 19.7329 19.35C19.7329 18.698 20.2615 18.1695 20.9135 18.1695H26.3963C26.4142 18.169 26.4322 18.169 26.4501 18.1695H27.2098C27.8618 18.1695 28.3904 18.698 28.3904 19.35V25.6461C28.3904 26.2981 27.8618 26.8267 27.2098 26.8267C26.5578 26.8267 26.0292 26.2981 26.0292 25.6461V22.4871C24.8747 24.1206 23.3746 25.4964 21.6218 26.509C18.9759 28.0374 15.9009 28.6536 12.8704 28.2626C9.83996 27.8716 7.02209 26.4951 4.85092 24.3451C2.67976 22.1951 1.27573 19.3908 0.855132 16.3644C0.765385 15.7186 1.21615 15.1224 1.86195 15.0326Z" fill="#373737"/>
</svg>
