<svg width="23" height="30" viewBox="0 0 23 30" fill="none" xmlns="http://www.w3.org/2000/svg">
<path fill-rule="evenodd" clip-rule="evenodd" d="M11.9649 22.2528C12.401 22.2528 12.7545 21.8992 12.7545 21.4631C12.7545 21.0271 12.401 20.6735 11.9649 20.6735C11.5288 20.6735 11.1752 21.0271 11.1752 21.4631C11.1752 21.8992 11.5288 22.2528 11.9649 22.2528ZM11.9649 24.2268C13.4912 24.2268 14.7285 22.9895 14.7285 21.4631C14.7285 19.9368 13.4912 18.6995 11.9649 18.6995C10.4385 18.6995 9.20117 19.9368 9.20117 21.4631C9.20117 22.9895 10.4385 24.2268 11.9649 24.2268Z" fill="#373737"/>
<path fill-rule="evenodd" clip-rule="evenodd" d="M4.48393 15.481C3.53754 15.481 2.78661 16.2513 2.78661 17.1812V25.7451C2.78661 26.675 3.53754 27.4453 4.48393 27.4453H18.6529C19.5993 27.4453 20.3502 26.675 20.3502 25.7451V17.1812C20.3502 16.2513 19.5993 15.481 18.6529 15.481H4.48393ZM0.513672 17.1812C0.513672 14.958 2.3002 13.1721 4.48393 13.1721H18.6529C20.8366 13.1721 22.6232 14.958 22.6232 17.1812V25.7451C22.6232 27.9684 20.8366 29.7542 18.6529 29.7542H4.48393C2.3002 29.7542 0.513672 27.9684 0.513672 25.7451V17.1812Z" fill="#373737"/>
<path fill-rule="evenodd" clip-rule="evenodd" d="M11.9643 2.89507C10.6031 2.89507 9.2976 3.4331 8.33505 4.39081C7.37251 5.34852 6.83176 6.64745 6.83176 8.00186V13.5728C6.83176 14.2237 6.30147 14.7513 5.64733 14.7513C4.99318 14.7513 4.46289 14.2237 4.46289 13.5728V8.00186C4.46289 6.02234 5.25322 4.1239 6.66001 2.72417C8.0668 1.32445 9.97482 0.538086 11.9643 0.538086C13.9538 0.538086 15.8618 1.32445 17.2686 2.72417C18.6754 4.1239 19.4658 6.02234 19.4658 8.00186C19.4658 8.65272 18.9355 9.18035 18.2813 9.18035C17.6272 9.18035 17.0969 8.65272 17.0969 8.00186C17.0969 6.64745 16.5561 5.34852 15.5936 4.39081C14.631 3.4331 13.3256 2.89507 11.9643 2.89507Z" fill="#373737"/>
</svg>
