<svg width="29" height="28" viewBox="0 0 29 28" fill="none" xmlns="http://www.w3.org/2000/svg">
<path fill-rule="evenodd" clip-rule="evenodd" d="M14.2188 2.125C7.57407 2.125 2.1875 7.35767 2.1875 13.8125C2.1875 20.2673 7.57407 25.5 14.2188 25.5C20.8634 25.5 26.25 20.2673 26.25 13.8125C26.25 7.35767 20.8634 2.125 14.2188 2.125ZM0 13.8125C0 6.18407 6.36595 0 14.2188 0C22.0716 0 28.4375 6.18407 28.4375 13.8125C28.4375 21.4409 22.0716 27.625 14.2188 27.625C6.36595 27.625 0 21.4409 0 13.8125Z" fill="#E1AA4B"/>
<path fill-rule="evenodd" clip-rule="evenodd" d="M14.2188 5.66669C14.8228 5.66669 15.3125 6.14238 15.3125 6.72919V13.3724L19.3671 17.3112C19.7943 17.7262 19.7943 18.3989 19.3671 18.8138C18.94 19.2288 18.2475 19.2288 17.8204 18.8138L13.4454 14.5638C13.2402 14.3646 13.125 14.0943 13.125 13.8125V6.72919C13.125 6.14238 13.6147 5.66669 14.2188 5.66669Z" fill="#E1AA4B"/>
</svg>
