<svg width="23" height="22" viewBox="0 0 23 22" fill="none" xmlns="http://www.w3.org/2000/svg">
<path fill-rule="evenodd" clip-rule="evenodd" d="M22.1315 0.428439C22.6024 0.8812 22.6024 1.61527 22.1315 2.06803L2.83958 20.6179C2.36871 21.0707 1.60528 21.0707 1.1344 20.6179C0.663532 20.1652 0.663532 19.4311 1.1344 18.9783L20.4263 0.428439C20.8972 -0.0243233 21.6606 -0.0243233 22.1315 0.428439Z" fill="#E1AA4B"/>
<path fill-rule="evenodd" clip-rule="evenodd" d="M3.70286 3.84522C4.16388 3.84522 4.53761 3.47149 4.53761 3.01048C4.53761 2.54946 4.16388 2.17573 3.70286 2.17573C3.24184 2.17573 2.86811 2.54946 2.86811 3.01048C2.86811 3.47149 3.24184 3.84522 3.70286 3.84522ZM3.70286 5.93209C5.31642 5.93209 6.62447 4.62404 6.62447 3.01048C6.62447 1.39692 5.31642 0.0888672 3.70286 0.0888672C2.0893 0.0888672 0.78125 1.39692 0.78125 3.01048C0.78125 4.62404 2.0893 5.93209 3.70286 5.93209Z" fill="#E1AA4B"/>
<path fill-rule="evenodd" clip-rule="evenodd" d="M19.1476 19.4072C19.6745 19.4072 20.1016 18.9801 20.1016 18.4532C20.1016 17.9264 19.6745 17.4992 19.1476 17.4992C18.6207 17.4992 18.1936 17.9264 18.1936 18.4532C18.1936 18.9801 18.6207 19.4072 19.1476 19.4072ZM19.1476 21.7922C20.9916 21.7922 22.4866 20.2973 22.4866 18.4532C22.4866 16.6092 20.9916 15.1143 19.1476 15.1143C17.3035 15.1143 15.8086 16.6092 15.8086 18.4532C15.8086 20.2973 17.3035 21.7922 19.1476 21.7922Z" fill="#E1AA4B"/>
</svg>
