<svg width="34" height="35" viewBox="0 0 34 35" fill="none" xmlns="http://www.w3.org/2000/svg">
<path fill-rule="evenodd" clip-rule="evenodd" d="M7.08333 11.302C6.10533 11.302 5.3125 12.1181 5.3125 13.1249V26.2499C5.3125 27.2567 6.10533 28.0728 7.08333 28.0728H26.9167C27.8947 28.0728 28.6875 27.2567 28.6875 26.2499V13.1249C28.6875 12.1181 27.8947 11.302 26.9167 11.302H7.08333ZM3.1875 13.1249C3.1875 10.91 4.93172 9.1145 7.08333 9.1145H26.9167C29.0683 9.1145 30.8125 10.91 30.8125 13.1249V26.2499C30.8125 28.4648 29.0683 30.2603 26.9167 30.2603H7.08333C4.93172 30.2603 3.1875 28.4648 3.1875 26.2499V13.1249Z" fill="#373737"/>
<path fill-rule="evenodd" clip-rule="evenodd" d="M14.1673 5.46875C13.6977 5.46875 13.2472 5.66081 12.9151 6.00267C12.5831 6.34453 12.3965 6.8082 12.3965 7.29167V10.2083C12.3965 10.8124 11.9208 11.3021 11.334 11.3021C10.7472 11.3021 10.2715 10.8124 10.2715 10.2083V7.29167C10.2715 6.22804 10.6819 5.20797 11.4125 4.45587C12.1432 3.70377 13.1341 3.28125 14.1673 3.28125H19.834C20.8672 3.28125 21.8581 3.70377 22.5888 4.45587C23.3194 5.20797 23.7298 6.22804 23.7298 7.29167V10.2083C23.7298 10.8124 23.2541 11.3021 22.6673 11.3021C22.0805 11.3021 21.6048 10.8124 21.6048 10.2083V7.29167C21.6048 6.8082 21.4182 6.34453 21.0862 6.00267C20.7541 5.66081 20.3036 5.46875 19.834 5.46875H14.1673Z" fill="#373737"/>
<path fill-rule="evenodd" clip-rule="evenodd" d="M17 16.4062C17.5868 16.4062 18.0625 16.8959 18.0625 17.5V17.5146C18.0625 18.1186 17.5868 18.6083 17 18.6083C16.4132 18.6083 15.9375 18.1186 15.9375 17.5146V17.5C15.9375 16.8959 16.4132 16.4062 17 16.4062Z" fill="#373737"/>
<path fill-rule="evenodd" clip-rule="evenodd" d="M3.30139 18.4661C3.56545 17.9266 4.20432 17.7097 4.72836 17.9815C8.53479 19.956 12.7378 20.9845 17.0002 20.9845C21.2626 20.9845 25.4657 19.956 29.2721 17.9815C29.7961 17.7097 30.435 17.9266 30.6991 18.4661C30.9631 19.0055 30.7524 19.6632 30.2284 19.935C26.1253 22.0633 21.5948 23.172 17.0002 23.172C12.4057 23.172 7.87515 22.0633 3.77211 19.935C3.24807 19.6632 3.03733 19.0055 3.30139 18.4661Z" fill="#373737"/>
</svg>
