<svg width="21" height="24" viewBox="0 0 21 24" fill="none" xmlns="http://www.w3.org/2000/svg">
<path d="M9.7195 15.9489C9.56011 16.123 9.47192 16.3562 9.47391 16.5982C9.4759 16.8402 9.56793 17.0718 9.73016 17.2429C9.89239 17.4141 10.1119 17.5111 10.3413 17.5132C10.5707 17.5153 10.7917 17.4223 10.9567 17.2542L15.624 12.312C15.6647 12.2691 15.6971 12.2182 15.7191 12.1621C15.7412 12.1061 15.7525 12.0459 15.7525 11.9852C15.7525 11.9245 15.7412 11.8644 15.7191 11.8083C15.6971 11.7523 15.6647 11.7013 15.624 11.6585L10.9567 6.71815C10.7917 6.55001 10.5707 6.45697 10.3413 6.45907C10.1119 6.46117 9.89239 6.55825 9.73016 6.7294C9.56793 6.90054 9.4759 7.13206 9.47391 7.37409C9.47192 7.61612 9.56011 7.84929 9.7195 8.02339L12.6 11.0769H0.875C0.642936 11.0769 0.420376 11.1742 0.256282 11.3473C0.0921872 11.5204 0 11.7552 0 12C0 12.2448 0.0921872 12.4796 0.256282 12.6527C0.420376 12.8258 0.642936 12.9231 0.875 12.9231H12.6L9.7195 15.9489ZM19.25 0H7.875C7.64294 0 7.42038 0.0972524 7.25628 0.270363C7.09219 0.443473 7 0.678262 7 0.923077C7 1.16789 7.09219 1.40268 7.25628 1.57579C7.42038 1.7489 7.64294 1.84615 7.875 1.84615H18.375C18.6071 1.84615 18.8296 1.94341 18.9937 2.11652C19.1578 2.28963 19.25 2.52442 19.25 2.76923V21.2308C19.25 21.4756 19.1578 21.7104 18.9937 21.8835C18.8296 22.0566 18.6071 22.1538 18.375 22.1538H7.4375C7.20544 22.1538 6.98288 22.2511 6.81878 22.4242C6.65469 22.5973 6.5625 22.8321 6.5625 23.0769C6.5625 23.3217 6.65469 23.5565 6.81878 23.7296C6.98288 23.9027 7.20544 24 7.4375 24H19.25C19.7141 24 20.1592 23.8055 20.4874 23.4593C20.8156 23.1131 21 22.6435 21 22.1538V1.84615C21 1.35652 20.8156 0.886947 20.4874 0.540726C20.1592 0.194505 19.7141 0 19.25 0Z" fill="white"/>
</svg>
