<svg width="23" height="18" viewBox="0 0 23 18" fill="none" xmlns="http://www.w3.org/2000/svg">
<path fill-rule="evenodd" clip-rule="evenodd" d="M3.10325 1.69268C2.32422 1.69268 1.69268 2.32422 1.69268 3.10325V14.3878C1.69268 15.1668 2.32422 15.7984 3.10325 15.7984H18.9016C19.6807 15.7984 20.3122 15.1668 20.3122 14.3878V3.10325C20.3122 2.32422 19.6807 1.69268 18.9016 1.69268H3.10325ZM0 3.10325C0 1.38937 1.38937 0 3.10325 0H18.9016C20.6155 0 22.0049 1.38937 22.0049 3.10325V14.3878C22.0049 16.1017 20.6155 17.4911 18.9016 17.4911H3.10325C1.38937 17.4911 0 16.1017 0 14.3878V3.10325Z" fill="#373737"/>
<path fill-rule="evenodd" clip-rule="evenodd" d="M0.142233 2.63429C0.401511 2.24537 0.926979 2.14028 1.3159 2.39956L11.0025 8.85731L20.6892 2.39956C21.0781 2.14028 21.6035 2.24537 21.8628 2.63429C22.1221 3.02321 22.017 3.54868 21.6281 3.80795L11.472 10.5787C11.1877 10.7682 10.8173 10.7682 10.5331 10.5787L0.376965 3.80795C-0.0119526 3.54868 -0.117046 3.02321 0.142233 2.63429Z" fill="#373737"/>
</svg>
