<svg width="21" height="21" viewBox="0 0 21 21" fill="none" xmlns="http://www.w3.org/2000/svg">
<path fill-rule="evenodd" clip-rule="evenodd" d="M3.10325 1.69268C2.72914 1.69268 2.37036 1.8413 2.10583 2.10583C1.84672 2.36494 1.69883 2.71447 1.69287 3.08025C1.95411 7.2652 3.73439 11.2112 6.69982 14.1766C9.66524 17.142 13.6112 18.9223 17.7962 19.1835C18.1619 19.1776 18.5115 19.0297 18.7706 18.7706C19.0351 18.5061 19.1837 18.1473 19.1837 17.7732V13.8323L14.7427 12.0559L13.4208 14.259C13.1942 14.6367 12.7158 14.7774 12.3208 14.5826C9.70321 13.2917 7.58472 11.1732 6.29379 8.55565C6.09897 8.16061 6.23971 7.68218 6.6174 7.45557L8.82048 6.13372L7.04407 1.69268H3.10325ZM0.908921 0.908921C1.49089 0.326948 2.28022 0 3.10325 0H7.61707C7.96314 0 8.27435 0.210697 8.40288 0.532018L10.6598 6.17429C10.8141 6.55998 10.6656 7.00062 10.3094 7.21435L8.17914 8.49251C9.19023 10.2365 10.64 11.6862 12.3839 12.6973L13.6621 10.567C13.8758 10.2108 14.3164 10.0624 14.7021 10.2166L20.3444 12.4735C20.6657 12.6021 20.8764 12.9133 20.8764 13.2593V17.7732C20.8764 18.5962 20.5495 19.3855 19.9675 19.9675C19.3855 20.5495 18.5962 20.8764 17.7732 20.8764C17.756 20.8764 17.7389 20.8759 17.7218 20.8749C13.1137 20.5948 8.76737 18.638 5.50291 15.3735C2.23845 12.109 0.281597 7.76273 0.0015585 3.15459C0.000519721 3.1375 0 3.12038 0 3.10325C0 2.28022 0.326948 1.49089 0.908921 0.908921Z" fill="#373737"/>
</svg>
