<svg width="31" height="31" viewBox="0 0 31 31" fill="none" xmlns="http://www.w3.org/2000/svg">
<path fill-rule="evenodd" clip-rule="evenodd" d="M15.5 0C6.94142 0 0 6.93883 0 15.5C0 24.0599 6.94142 31 15.5 31C24.0599 31 31 24.0599 31 15.5C31 6.93883 24.0599 0 15.5 0ZM19.6643 23.0834C19.9072 23.2552 20.2197 23.2978 20.4987 23.1932C20.7765 23.0872 20.9818 22.8483 21.0438 22.559C21.6987 19.4822 23.2875 11.6935 23.8829 8.89571C23.9281 8.68388 23.8532 8.46429 23.6879 8.3235C23.5212 8.18271 23.2913 8.14267 23.0872 8.21758C19.9278 9.38783 10.1977 13.0381 6.22067 14.5093C5.96879 14.6036 5.80475 14.8451 5.8125 15.1125C5.82154 15.3786 6.00108 15.6098 6.25942 15.6873C8.04321 16.2208 10.3837 16.9635 10.3837 16.9635C10.3837 16.9635 11.4777 20.2675 12.0474 21.9467C12.1197 22.1585 12.285 22.3239 12.502 22.3807C12.7203 22.4375 12.9515 22.3781 13.1143 22.2244C14.0301 21.3603 15.4458 20.0234 15.4458 20.0234C15.4458 20.0234 18.1376 21.9958 19.6643 23.0834ZM11.368 16.545L12.6338 20.7183L12.9154 18.0756C12.9154 18.0756 17.8017 13.6671 20.5892 11.1548C20.6705 11.0812 20.6809 10.9572 20.6137 10.8707C20.5465 10.7841 20.4225 10.7635 20.3308 10.8229C17.1017 12.8844 11.368 16.545 11.368 16.545Z" fill="white"/>
</svg>
